<svg id="visual" viewBox="0 0 960 540" width="960" height="540" xmlns="http://www.w3.org/2000/svg" xmlns:xlink="http://www.w3.org/1999/xlink" version="1.1"><rect x="0" y="0" width="960" height="540" fill="#898AA6"></rect><path d="M0 384L22.8 395.8C45.7 407.7 91.3 431.3 137 428.2C182.7 425 228.3 395 274 383.7C319.7 372.3 365.3 379.7 411.2 392C457 404.3 503 421.7 548.8 431.8C594.7 442 640.3 445 686 432.7C731.7 420.3 777.3 392.7 823 377C868.7 361.3 914.3 357.7 937.2 355.8L960 354L960 541L937.2 541C914.3 541 868.7 541 823 541C777.3 541 731.7 541 686 541C640.3 541 594.7 541 548.8 541C503 541 457 541 411.2 541C365.3 541 319.7 541 274 541C228.3 541 182.7 541 137 541C91.3 541 45.7 541 22.8 541L0 541Z" fill="#C9BBCF" stroke-linecap="round" stroke-linejoin="miter"></path></svg>