<svg id="visual" viewBox="0 0 900 600" width="900" height="600" xmlns="http://www.w3.org/2000/svg" xmlns:xlink="http://www.w3.org/1999/xlink" version="1.1"><rect x="0" y="0" width="900" height="600" fill="#898AA6"></rect><path d="M0 386L21.5 389C43 392 86 398 128.8 398C171.7 398 214.3 392 257.2 408.2C300 424.3 343 462.7 385.8 476.5C428.7 490.3 471.3 479.7 514.2 466.5C557 453.3 600 437.7 642.8 446C685.7 454.3 728.3 486.7 771.2 484.7C814 482.7 857 446.3 878.5 428.2L900 410L900 601L878.5 601C857 601 814 601 771.2 601C728.3 601 685.7 601 642.8 601C600 601 557 601 514.2 601C471.3 601 428.7 601 385.8 601C343 601 300 601 257.2 601C214.3 601 171.7 601 128.8 601C86 601 43 601 21.5 601L0 601Z" fill="#C9BBCF" stroke-linecap="round" stroke-linejoin="miter"></path></svg>